<?xml version="1.0" standalone="no"?>
<!DOCTYPE svg PUBLIC "-//W3C//DTD SVG 20010904//EN"
 "http://www.w3.org/TR/2001/REC-SVG-20010904/DTD/svg10.dtd">
<svg version="1.0" xmlns="http://www.w3.org/2000/svg"
 width="250.000000pt" height="225.000000pt" viewBox="0 0 250.000000 225.000000"
 preserveAspectRatio="xMidYMid meet">

<g transform="translate(0.000000,225.000000) scale(0.100000,-0.100000)"
fill="#000000" stroke="none">
<path d="M0 1125 l0 -1125 1250 0 1250 0 0 1125 0 1125 -1250 0 -1250 0 0
-1125z m1465 1075 c10 -22 22 -37 27 -34 5 3 7 2 6 -3 -5 -15 34 -93 44 -87 5
3 7 2 6 -3 -6 -17 35 -92 46 -86 6 3 8 3 4 -2 -9 -10 39 -105 54 -105 6 0 9
-3 5 -6 -9 -9 31 -84 45 -84 6 0 9 -3 5 -6 -8 -9 31 -84 43 -84 6 0 9 -3 7 -8
-4 -14 36 -92 45 -86 5 3 7 2 6 -3 -5 -15 34 -93 44 -87 5 3 7 2 6 -3 -6 -17
35 -92 46 -86 6 3 8 3 4 -2 -9 -10 39 -105 54 -105 6 0 9 -3 5 -6 -9 -9 31
-84 45 -84 6 0 9 -3 5 -6 -9 -9 31 -84 45 -84 6 0 9 -3 5 -6 -8 -9 31 -84 43
-84 6 0 9 -3 7 -8 -3 -12 35 -92 43 -87 7 4 10 -11 11 -52 1 -13 7 -23 15 -23
8 0 14 -5 14 -11 0 -5 5 -7 10 -4 6 4 9 3 8 -2 -6 -17 35 -92 46 -86 6 3 8 3
4 -2 -9 -10 39 -105 54 -105 6 0 9 -3 5 -6 -8 -9 31 -84 43 -84 6 0 9 -3 8 -7
-5 -15 24 -73 33 -67 5 3 6 -3 2 -12 -4 -12 -3 -15 6 -10 6 4 10 4 9 -1 -6
-17 35 -92 46 -86 6 3 8 3 4 -2 -4 -4 -3 -16 3 -26 9 -18 -13 -19 -847 -19
l-856 0 16 22 c8 13 25 43 36 68 11 24 24 47 28 50 4 3 18 29 31 58 14 28 27
52 31 52 3 0 12 16 19 35 l12 35 485 0 c472 0 484 0 484 19 0 11 -5 23 -11 26
-10 7 -21 27 -79 141 -14 27 -30 55 -37 61 -6 7 -17 29 -23 48 -6 19 -15 35
-19 35 -4 0 -16 19 -27 43 -10 23 -24 48 -31 54 -6 7 -17 29 -23 48 -6 19 -15
35 -19 35 -4 0 -16 19 -27 43 -10 23 -24 48 -31 55 -6 7 -17 28 -24 47 -7 19
-16 35 -20 35 -3 0 -17 21 -29 48 -12 26 -35 70 -51 97 -16 28 -38 68 -50 90
-12 22 -34 63 -50 90 -37 65 -68 120 -100 181 -36 67 -117 213 -185 332 l-25
42 194 0 194 0 18 -40z m-379 -707 c-4 -9 -1 -11 6 -7 8 5 9 2 5 -10 -5 -11
-3 -15 5 -10 8 5 9 2 5 -10 -4 -10 -3 -15 3 -11 12 7 33 -32 24 -47 -5 -7 -3
-8 6 -3 10 6 12 4 7 -9 -5 -11 -3 -15 5 -10 8 5 9 2 5 -10 -4 -10 -3 -15 3
-11 12 8 43 -52 34 -67 -5 -7 -3 -8 6 -3 10 6 12 4 7 -8 -4 -10 -2 -16 6 -14
7 1 11 -6 11 -15 -1 -10 2 -15 7 -12 5 3 9 -2 9 -11 0 -9 -4 -14 -9 -11 -5 3
-8 -2 -7 -12 0 -9 -4 -16 -11 -15 -8 2 -10 -4 -6 -14 5 -11 3 -14 -6 -8 -11 6
-11 3 0 -16 12 -23 11 -23 -6 -9 -17 14 -18 14 -5 -10 12 -23 12 -24 -4 -11
-14 12 -16 12 -10 -4 5 -12 4 -16 -4 -11 -6 3 -14 1 -18 -5 -4 -8 -3 -9 4 -5
17 10 15 -6 -4 -32 -8 -12 -12 -28 -8 -35 5 -7 0 -6 -11 3 -17 14 -18 14 -5
-10 12 -23 12 -24 -4 -11 -14 12 -16 12 -10 -4 5 -13 4 -16 -4 -11 -7 4 -10 2
-7 -6 3 -8 -2 -22 -11 -33 -8 -11 -12 -14 -8 -6 5 9 3 12 -4 7 -9 -5 -9 -13 0
-29 10 -21 10 -21 -7 -7 -17 14 -18 14 -5 -10 12 -23 12 -24 -4 -11 -14 12
-16 12 -10 -4 5 -13 4 -16 -4 -11 -8 5 -10 1 -5 -10 4 -11 2 -15 -4 -11 -6 4
-10 -1 -9 -11 0 -9 -4 -16 -11 -15 -8 2 -10 -4 -6 -14 5 -11 3 -14 -6 -8 -11
6 -11 3 0 -16 11 -22 11 -23 -5 -10 -14 12 -16 12 -10 -4 5 -13 4 -16 -4 -11
-8 5 -10 1 -5 -10 4 -11 2 -15 -4 -11 -6 4 -10 -1 -9 -11 0 -9 -4 -16 -11 -15
-8 2 -10 -4 -6 -14 5 -12 3 -14 -7 -8 -8 5 -11 4 -6 -3 10 -16 -52 -134 -66
-126 -7 4 -8 3 -4 -4 4 -7 2 -20 -4 -29 -11 -17 -11 -17 -6 0 4 11 2 16 -5 12
-6 -4 -8 -14 -5 -22 7 -18 -22 -76 -34 -68 -6 4 -7 -1 -3 -11 5 -13 3 -15 -7
-9 -9 5 -11 4 -6 -3 4 -6 -2 -29 -14 -51 -11 -22 -20 -43 -20 -46 0 -3 385 -5
855 -5 470 0 855 -2 855 -5 0 -19 -43 -85 -51 -79 -6 4 -6 -4 2 -17 12 -23 11
-23 -6 -9 -17 14 -18 14 -5 -10 13 -24 12 -24 -5 -10 -17 14 -18 14 -5 -10 12
-23 12 -24 -4 -11 -14 12 -16 12 -10 -4 6 -14 4 -16 -6 -10 -9 5 -11 4 -6 -3
9 -15 -12 -54 -24 -47 -6 4 -7 -1 -3 -11 4 -12 3 -15 -5 -10 -8 5 -10 1 -5
-10 5 -12 3 -15 -6 -9 -11 6 -11 3 0 -16 11 -22 11 -23 -5 -10 -14 12 -16 12
-10 -4 5 -12 4 -16 -3 -12 -6 4 -10 -1 -9 -11 1 -16 -59 -17 -1052 -20 -715
-1 -1051 1 -1047 8 4 6 11 8 16 5 5 -3 6 2 2 11 -5 13 -3 15 7 9 9 -5 11 -4 6
3 -9 15 22 75 34 67 6 -4 7 1 3 11 -4 12 -3 15 5 10 8 -5 10 -1 5 10 -4 12 -3
15 5 10 8 -5 10 -1 5 10 -5 13 -3 15 7 9 9 -5 11 -4 6 3 -9 15 12 54 24 47 6
-4 7 1 3 11 -4 12 -3 15 5 10 8 -5 10 -1 5 10 -5 13 -3 15 7 9 9 -5 11 -4 6 3
-9 15 12 54 24 47 6 -4 7 1 3 11 -4 12 -3 15 5 10 8 -5 10 -1 5 10 -4 12 -3
15 5 10 8 -5 10 -1 5 10 -5 13 -3 15 7 9 9 -5 11 -4 6 3 -9 15 22 75 34 67 6
-4 7 1 3 11 -4 12 -3 15 5 10 8 -5 10 -1 5 10 -5 13 -3 15 7 9 9 -5 11 -4 6 3
-9 15 22 75 34 67 6 -4 7 1 3 11 -5 13 -3 15 7 9 9 -5 11 -4 6 3 -9 15 22 75
34 67 6 -4 7 1 3 11 -4 12 -3 15 5 10 8 -5 10 -1 5 10 -5 13 -3 15 7 9 9 -5
11 -4 6 3 -9 15 22 75 34 67 6 -4 7 1 3 11 -4 12 -3 15 5 10 8 -5 10 -1 5 10
-4 12 -3 15 5 10 8 -5 10 -1 5 10 -5 13 -3 15 7 9 9 -5 11 -4 6 3 -9 15 12 54
24 47 6 -4 7 1 3 11 -5 13 -3 15 7 9 9 -5 11 -4 6 3 -9 15 32 95 44 87 6 -4 7
1 3 11 -4 12 -3 15 5 10 8 -5 10 -1 5 10 -5 13 -3 15 7 9 9 -5 11 -4 6 3 -10
16 22 74 36 66 7 -4 8 -3 4 4 -9 15 42 115 54 107 6 -4 7 1 3 11 -5 13 -3 15
7 9 9 -5 11 -4 6 3 -9 15 22 75 34 67 6 -4 7 1 3 11 -5 13 -3 15 7 9 9 -5 11
-4 6 3 -9 15 32 95 44 87 6 -4 7 1 3 11 -5 13 -3 15 7 9 9 -5 11 -4 6 3 -10
16 32 94 46 86 6 -4 8 -3 5 4 -4 5 -4 18 0 28 6 15 8 15 25 -6 10 -13 16 -30
14 -37z"/>
</g>
</svg>
